<svg xmlns="http://www.w3.org/2000/svg" xmlns:xlink="http://www.w3.org/1999/xlink" width="20" height="20" viewBox="0 0 20 20"><defs><style>.a{fill:#fff;stroke:#707070;}.b{clip-path:url(#a);}.c{fill:#333;}</style><clipPath id="a"><rect class="a" width="20" height="20" transform="translate(55 368)"/></clipPath></defs><g class="b" transform="translate(-55 -368)"><g transform="translate(55 365)"><g transform="translate(0 3)"><g transform="translate(0 1)"><path class="c" d="M72.275,89.581a2.094,2.094,0,0,0-3.321,1.367q-.661.18-1.387.315l-1.546-2.679a9.432,9.432,0,0,0,6.463-2.618H64.509l-1.58-2.738H74.351a6.679,6.679,0,0,0,.871-2.739H61.347l-1.581-2.738h18.32S78.858,85.735,72.275,89.581Z" transform="translate(-58.114 -74.87)"/><path class="c" d="M42.224,41.937h-3l-1.652-2.881H40.86Z" transform="translate(-37.575 -39.056)"/><g transform="translate(11.389 14.869)"><path class="c" d="M193.714,240.338a1.6,1.6,0,0,1-3.19,0,1.578,1.578,0,0,1,.059-.43,1.6,1.6,0,0,1,1.536-1.165,1.574,1.574,0,0,1,.791.211A1.6,1.6,0,0,1,193.714,240.338Z" transform="translate(-190.524 -238.743)"/></g></g></g></g></g></svg>